<svg version="1.2" xmlns="http://www.w3.org/2000/svg" viewBox="0 0 460 460" width="460" height="460"><defs><linearGradient id="P" gradientUnits="userSpaceOnUse"/><linearGradient id="g1" x1="239.2" y1="68.8" x2="239.2" y2="356.4" href="#P"><stop stop-color="#f2cc0c"/><stop offset="1" stop-color="#ff9830"/></linearGradient><linearGradient id="g2" x1="239.2" y1="68.8" x2="239.2" y2="356.4" href="#P"><stop stop-color="#f2cc0c"/><stop offset="1" stop-color="#ff9830"/></linearGradient></defs><style>.A{fill:#c30707}.B{fill:#e42828}.C{fill:url(#g1)}.D{fill:url(#g2)}</style><circle class="A" cx="229.7" cy="229.7" r="183.5"/><path fill-rule="evenodd" class="B" d="m229.7 0c126.8 0 229.8 102.9 229.8 229.7 0 126.8-103 229.8-229.8 229.8-126.8 0-229.7-103-229.7-229.8 0-126.8 102.9-229.7 229.7-229.7zm-206.7 229.7c0 114.1 92.6 206.8 206.7 206.8 114.2 0 206.8-92.7 206.8-206.8 0-114.1-92.6-206.7-206.8-206.7-114.1 0-206.7 92.6-206.7 206.7z"/><path class="C" d="m147.7 289.3v-18.7c0-17.3-6.5-24.7-25.9-24.7v-32.4c19.4 0 25.9-7.3 25.9-24.6v-18.7c0-41.6 24.4-47.2 58.5-47.2v26.8c-20 0-24 7.7-24 24.1v24.6c0 12.9-5.6 24.6-30.1 29.5v3.4c24.5 5 30.1 16.6 30.1 29.6v24.7c0 16.3 4 23.9 24 23.9v27c-34.1 0-58.5-5.7-58.5-47.3z"/><path class="D" d="m311.7 170.2v18.7c0 17.3 6.5 24.6 25.9 24.6v32.4c-19.4 0-25.9 7.4-25.9 24.7v18.6c0 41.6-24.3 47.3-58.4 47.3v-26.9c20 0 24-7.6 24-24v-24.6c0-13 5.6-24.6 30.1-29.6v-3.4c-24.5-4.9-30.1-16.6-30.1-29.6v-24.6c0-16.3-4-24-24-24v-26.9c34.1 0 58.4 5.7 58.4 47.3z"/></svg>